<svg width="155" height="34" viewBox="0 0 155 34" fill="none" xmlns="http://www.w3.org/2000/svg">
<g id="Vector">
<path d="M30.3492 17.7565C30.3492 26.2285 23.5553 33.0964 15.1746 33.0964C6.79391 33.0964 0 26.2285 0 17.7565C0 9.2846 6.79391 2.41673 15.1746 2.41673C23.5553 2.41673 30.3492 9.2846 30.3492 17.7565Z" fill="white"/>
<path d="M15.1746 10.8915L38.0343 0.115761L48.694 23.2243L25.8343 34L15.1746 10.8915Z" fill="white" fill-opacity="0.5"/>
<path d="M55.0232 8.46758H58.483V10.7686H58.5437C58.8674 10.0731 59.3834 9.45956 60.0915 8.92778C60.8199 8.37554 61.7911 8.09943 63.005 8.09943C65.2913 8.09943 66.8088 9.00959 67.5574 10.8299C68.0835 9.88907 68.741 9.20389 69.5301 8.77438C70.3192 8.32441 71.26 8.09943 72.3526 8.09943C73.3238 8.09943 74.1432 8.26305 74.8109 8.5903C75.4786 8.91755 76.0147 9.36752 76.4194 9.9402C76.8443 10.5129 77.1478 11.1878 77.3299 11.9651C77.512 12.7218 77.603 13.5399 77.603 14.4194V23.1938H73.9611V14.8489C73.9611 14.399 73.9206 13.9695 73.8397 13.5604C73.7588 13.1309 73.6172 12.7627 73.4148 12.4559C73.2125 12.1287 72.9394 11.873 72.5954 11.6889C72.2514 11.5049 71.8063 11.4128 71.26 11.4128C70.6935 11.4128 70.2079 11.5253 69.8033 11.7503C69.4188 11.9548 69.0951 12.2412 68.8321 12.6093C68.5893 12.957 68.4072 13.3661 68.2858 13.8365C68.1846 14.2865 68.1341 14.7467 68.1341 15.2171V23.1938H64.4921V14.4194C64.4921 13.499 64.2999 12.773 63.9155 12.2412C63.5311 11.6889 62.8938 11.4128 62.0035 11.4128C61.3965 11.4128 60.8806 11.5151 60.4557 11.7196C60.051 11.9242 59.7071 12.2003 59.4238 12.548C59.1608 12.8957 58.9686 13.2945 58.8472 13.7445C58.7258 14.1944 58.6651 14.6649 58.6651 15.1557V23.1938H55.0232V8.46758Z" fill="white"/>
<path d="M81.2485 8.46758H84.8904V23.1938H81.2485V8.46758ZM80.7326 3.4668C80.7326 2.87366 80.945 2.36233 81.3699 1.93282C81.815 1.48285 82.3714 1.25787 83.0391 1.25787C83.7068 1.25787 84.2632 1.47262 84.7083 1.90214C85.1737 2.3112 85.4063 2.83275 85.4063 3.4668C85.4063 4.10085 85.1737 4.63263 84.7083 5.06214C84.2632 5.4712 83.7068 5.67573 83.0391 5.67573C82.3714 5.67573 81.815 5.46098 81.3699 5.03146C80.945 4.58149 80.7326 4.05994 80.7326 3.4668Z" fill="white"/>
<path d="M88.7376 0H92.3795V23.1938H88.7376V0Z" fill="white"/>
<path d="M99.0796 17.1192C99.201 18.2237 99.6259 19.0827 100.354 19.6963C101.083 20.3099 101.963 20.6167 102.995 20.6167C103.905 20.6167 104.664 20.4326 105.271 20.0645C105.898 19.6759 106.444 19.1952 106.91 18.6225L109.52 20.6167C108.67 21.6803 107.719 22.437 106.667 22.887C105.615 23.337 104.512 23.562 103.359 23.562C102.266 23.562 101.234 23.3779 100.263 23.0097C99.2921 22.6416 98.4524 22.12 97.7443 21.4451C97.0361 20.7701 96.4696 19.9622 96.0447 19.0214C95.64 18.0601 95.4377 16.9965 95.4377 15.8307C95.4377 14.6649 95.64 13.6115 96.0447 12.6707C96.4696 11.7094 97.0361 10.8913 97.7443 10.2163C98.4524 9.54137 99.2921 9.01981 100.263 8.65166C101.234 8.2835 102.266 8.09943 103.359 8.09943C104.37 8.09943 105.291 8.2835 106.121 8.65166C106.97 8.99936 107.689 9.51069 108.275 10.1856C108.882 10.8606 109.348 11.6992 109.671 12.7014C110.015 13.6831 110.187 14.8183 110.187 16.1068V17.1192H99.0796ZM106.546 14.3581C106.525 13.2741 106.191 12.4253 105.544 11.8117C104.897 11.1776 103.996 10.8606 102.843 10.8606C101.75 10.8606 100.88 11.1776 100.233 11.8117C99.6057 12.4457 99.2212 13.2945 99.0796 14.3581H106.546Z" fill="white"/>
<path d="M120.968 12.548C120.26 11.5458 119.309 11.0447 118.115 11.0447C117.63 11.0447 117.154 11.1674 116.689 11.4128C116.223 11.6583 115.991 12.0571 115.991 12.6093C115.991 13.0593 116.183 13.3866 116.567 13.5911C116.952 13.7956 117.437 13.9695 118.024 14.1126C118.611 14.2558 119.238 14.4092 119.906 14.5728C120.594 14.716 121.231 14.9512 121.818 15.2785C122.405 15.5853 122.89 16.0148 123.275 16.567C123.659 17.1192 123.851 17.876 123.851 18.8373C123.851 19.7168 123.659 20.4633 123.275 21.0769C122.91 21.6701 122.425 22.1507 121.818 22.5189C121.231 22.887 120.563 23.1529 119.815 23.3165C119.066 23.4802 118.318 23.562 117.569 23.562C116.436 23.562 115.394 23.3983 114.443 23.0711C113.492 22.7438 112.642 22.1507 111.894 21.2917L114.322 18.9907C114.787 19.5225 115.283 19.9622 115.809 20.3099C116.355 20.6372 117.013 20.8008 117.781 20.8008C118.044 20.8008 118.318 20.7701 118.601 20.7088C118.884 20.6474 119.147 20.5451 119.39 20.402C119.633 20.2588 119.825 20.0849 119.967 19.8804C120.128 19.6554 120.209 19.3998 120.209 19.1134C120.209 18.6021 120.017 18.2237 119.633 17.9783C119.248 17.7328 118.763 17.5385 118.176 17.3954C117.589 17.2317 116.952 17.0886 116.264 16.9658C115.596 16.8227 114.969 16.6079 114.382 16.3216C113.796 16.0148 113.31 15.5955 112.926 15.0637C112.541 14.5319 112.349 13.7956 112.349 12.8548C112.349 12.0366 112.511 11.331 112.834 10.7379C113.178 10.1243 113.624 9.62318 114.17 9.23457C114.716 8.84596 115.343 8.55962 116.051 8.37554C116.76 8.19146 117.478 8.09943 118.206 8.09943C119.177 8.09943 120.139 8.27328 121.089 8.62098C122.04 8.94823 122.809 9.52092 123.396 10.339L120.968 12.548Z" fill="white"/>
<path d="M126.289 21.0462C126.289 20.3917 126.522 19.8293 126.987 19.3589C127.473 18.8884 128.05 18.6532 128.717 18.6532C129.365 18.6532 129.931 18.8782 130.417 19.3282C130.902 19.7781 131.145 20.3304 131.145 20.9849C131.145 21.6394 130.902 22.2018 130.417 22.6723C129.952 23.1427 129.385 23.3779 128.717 23.3779C128.394 23.3779 128.08 23.3165 127.776 23.1938C127.493 23.0711 127.24 22.9075 127.018 22.7029C126.795 22.4984 126.613 22.253 126.471 21.9666C126.35 21.6803 126.289 21.3735 126.289 21.0462Z" fill="white"/>
<path d="M143.98 21.169H143.889C143.363 22.0075 142.695 22.6211 141.886 23.0097C141.076 23.3779 140.186 23.562 139.215 23.562C138.547 23.562 137.89 23.4699 137.242 23.2858C136.615 23.1018 136.049 22.8257 135.543 22.4575C135.057 22.0893 134.663 21.6291 134.359 21.0769C134.056 20.5247 133.904 19.8804 133.904 19.1441C133.904 18.3464 134.046 17.6715 134.329 17.1192C134.612 16.5466 134.986 16.0761 135.452 15.708C135.937 15.3194 136.494 15.0126 137.121 14.7876C137.748 14.5626 138.396 14.399 139.063 14.2967C139.751 14.174 140.439 14.1024 141.127 14.082C141.815 14.041 142.462 14.0206 143.069 14.0206H143.98V13.6218C143.98 12.7014 143.666 12.0162 143.039 11.5662C142.412 11.0958 141.613 10.8606 140.641 10.8606C139.873 10.8606 139.154 11.0038 138.487 11.2901C137.819 11.556 137.242 11.9242 136.757 12.3946L134.845 10.4618C135.654 9.62318 136.595 9.01981 137.667 8.65166C138.76 8.2835 139.883 8.09943 141.036 8.09943C142.068 8.09943 142.938 8.22214 143.646 8.46758C144.354 8.69256 144.941 8.98914 145.406 9.35729C145.872 9.72545 146.226 10.155 146.469 10.6458C146.732 11.1163 146.914 11.5969 147.015 12.0878C147.136 12.5787 147.207 13.0593 147.227 13.5297C147.247 13.9797 147.258 14.3785 147.258 14.7262V23.1938H143.98V21.169ZM143.767 16.5977H143.009C142.503 16.5977 141.936 16.6181 141.309 16.659C140.682 16.7 140.085 16.8022 139.519 16.9658C138.972 17.109 138.507 17.334 138.123 17.6408C137.738 17.9271 137.546 18.3362 137.546 18.868C137.546 19.2157 137.617 19.5123 137.758 19.7577C137.92 19.9827 138.122 20.177 138.365 20.3406C138.608 20.5042 138.881 20.6269 139.185 20.7088C139.488 20.7701 139.792 20.8008 140.095 20.8008C141.35 20.8008 142.27 20.5042 142.857 19.9111C143.464 19.2975 143.767 18.4691 143.767 17.426V16.5977Z" fill="white"/>
<path d="M150.842 8.46758H154.484V23.1938H150.842V8.46758ZM150.326 3.4668C150.326 2.87366 150.539 2.36233 150.964 1.93282C151.409 1.48285 151.965 1.25787 152.633 1.25787C153.3 1.25787 153.857 1.47262 154.302 1.90214C154.767 2.3112 155 2.83275 155 3.4668C155 4.10085 154.767 4.63263 154.302 5.06214C153.857 5.4712 153.3 5.67573 152.633 5.67573C151.965 5.67573 151.409 5.46098 150.964 5.03146C150.539 4.58149 150.326 4.05994 150.326 3.4668Z" fill="white"/>
</g>
</svg>
