<svg width="192" height="42" viewBox="0 0 192 42" fill="none" xmlns="http://www.w3.org/2000/svg">
<g id="Vector">
<path d="M37.5939 21.9346C37.5939 32.3999 29.1782 40.8838 18.797 40.8838C8.41568 40.8838 0 32.3999 0 21.9346C0 11.4692 8.41568 2.98537 18.797 2.98537C29.1782 2.98537 37.5939 11.4692 37.5939 21.9346Z" fill="#0CC863"/>
<path d="M18.797 13.4541L47.1135 0.142999L60.3177 28.6889L32.0012 42L18.797 13.4541Z" fill="#0CC863" fill-opacity="0.5"/>
<path d="M68.1577 10.46H72.4435V13.3023H72.5186C72.9196 12.4433 73.5587 11.6853 74.4359 11.0284C75.3382 10.3463 76.5412 10.0052 78.0449 10.0052C80.877 10.0052 82.7567 11.1295 83.684 13.3781C84.3357 12.2159 85.1502 11.3695 86.1276 10.8389C87.1051 10.2831 88.2705 10.0052 89.6239 10.0052C90.8269 10.0052 91.8419 10.2073 92.669 10.6115C93.496 11.0158 94.1602 11.5716 94.6615 12.2791C95.1878 12.9865 95.5637 13.8203 95.7893 14.7804C96.0148 15.7152 96.1276 16.7258 96.1276 17.8122V28.6512H91.6163V18.3428C91.6163 17.787 91.5662 17.2564 91.466 16.7511C91.3657 16.2205 91.1903 15.7657 90.9397 15.3867C90.689 14.9825 90.3507 14.6667 89.9246 14.4393C89.4986 14.2119 88.9472 14.0982 88.2705 14.0982C87.5687 14.0982 86.9672 14.2372 86.466 14.5151C85.9898 14.7677 85.5888 15.1215 85.263 15.5762C84.9622 16.0058 84.7367 16.5111 84.5863 17.0922C84.461 17.648 84.3983 18.2165 84.3983 18.7976V28.6512H79.887V17.8122C79.887 16.6753 79.649 15.7784 79.1728 15.1215C78.6966 14.4393 77.9071 14.0982 76.8043 14.0982C76.0525 14.0982 75.4134 14.2245 74.8871 14.4772C74.3858 14.7298 73.9597 15.0709 73.6089 15.5004C73.2831 15.93 73.045 16.4226 72.8946 16.9785C72.7442 17.5343 72.669 18.1154 72.669 18.7218V28.6512H68.1577V10.46Z" fill="#0CC863"/>
<path d="M100.643 10.46H105.155V28.6512H100.643V10.46ZM100.004 4.28252C100.004 3.54982 100.267 2.91818 100.794 2.3876C101.345 1.83176 102.034 1.55383 102.861 1.55383C103.688 1.55383 104.378 1.81912 104.929 2.3497C105.505 2.85501 105.794 3.49928 105.794 4.28252C105.794 5.06575 105.505 5.72265 104.929 6.25323C104.378 6.75854 103.688 7.0112 102.861 7.0112C102.034 7.0112 101.345 6.74591 100.794 6.21534C100.267 5.65949 100.004 5.01522 100.004 4.28252Z" fill="#0CC863"/>
<path d="M109.92 0H114.431V28.6512H109.92V0Z" fill="#0CC863"/>
<path d="M122.731 21.1473C122.881 22.5116 123.408 23.5728 124.31 24.3308C125.212 25.0887 126.302 25.4677 127.58 25.4677C128.708 25.4677 129.648 25.2403 130.4 24.7855C131.177 24.3055 131.854 23.7118 132.43 23.0043L135.663 25.4677C134.611 26.7815 133.433 27.7163 132.129 28.2722C130.826 28.828 129.46 29.106 128.032 29.106C126.678 29.106 125.4 28.8786 124.197 28.4238C122.994 27.969 121.954 27.3247 121.077 26.491C120.2 25.6572 119.498 24.6592 118.971 23.497C118.47 22.3095 118.22 20.9957 118.22 19.5556C118.22 18.1154 118.47 16.8142 118.971 15.652C119.498 14.4645 120.2 13.4539 121.077 12.6202C121.954 11.7864 122.994 11.1421 124.197 10.6873C125.4 10.2326 126.678 10.0052 128.032 10.0052C129.285 10.0052 130.425 10.2326 131.453 10.6873C132.505 11.1169 133.395 11.7485 134.122 12.5823C134.874 13.416 135.45 14.4519 135.851 15.6899C136.277 16.9027 136.49 18.3049 136.49 19.8967V21.1473H122.731ZM131.979 17.7364C131.954 16.3974 131.54 15.3488 130.738 14.5909C129.936 13.8076 128.821 13.416 127.393 13.416C126.039 13.416 124.961 13.8076 124.159 14.5909C123.383 15.3741 122.906 16.4226 122.731 17.7364H131.979Z" fill="#0CC863"/>
<path d="M149.844 15.5004C148.967 14.2624 147.789 13.6434 146.31 13.6434C145.709 13.6434 145.12 13.795 144.544 14.0982C143.967 14.4014 143.679 14.8941 143.679 15.5762C143.679 16.1321 143.917 16.5363 144.393 16.789C144.869 17.0416 145.471 17.2564 146.198 17.4333C146.925 17.6101 147.701 17.7996 148.529 18.0017C149.381 18.1786 150.17 18.4691 150.897 18.8734C151.624 19.2524 152.225 19.783 152.701 20.4651C153.178 21.1473 153.416 22.0821 153.416 23.2696C153.416 24.356 153.178 25.2782 152.701 26.0362C152.25 26.7689 151.649 27.3626 150.897 27.8174C150.17 28.2722 149.343 28.6006 148.416 28.8028C147.488 29.0049 146.561 29.106 145.634 29.106C144.23 29.106 142.94 28.9038 141.762 28.4996C140.584 28.0953 139.531 27.3626 138.604 26.3015L141.611 23.4591C142.188 24.116 142.802 24.6592 143.453 25.0887C144.13 25.493 144.945 25.6951 145.897 25.6951C146.223 25.6951 146.561 25.6572 146.912 25.5814C147.263 25.5056 147.589 25.3793 147.889 25.2024C148.19 25.0256 148.428 24.8108 148.604 24.5582C148.804 24.2802 148.904 23.9644 148.904 23.6107C148.904 22.9791 148.666 22.5116 148.19 22.2085C147.714 21.9053 147.112 21.6652 146.386 21.4884C145.659 21.2863 144.869 21.1094 144.017 20.9578C143.19 20.7809 142.413 20.5157 141.686 20.1619C140.96 19.783 140.358 19.265 139.882 18.6081C139.406 17.9512 139.168 17.0416 139.168 15.8794C139.168 14.8688 139.368 13.9971 139.769 13.2644C140.195 12.5065 140.747 11.8875 141.423 11.4074C142.1 10.9274 142.877 10.5736 143.754 10.3463C144.631 10.1189 145.521 10.0052 146.423 10.0052C147.626 10.0052 148.817 10.2199 149.995 10.6494C151.173 11.0537 152.125 11.7611 152.852 12.7718L149.844 15.5004Z" fill="#0CC863"/>
<path d="M156.436 25.9983C156.436 25.1898 156.724 24.495 157.301 23.9139C157.902 23.3328 158.616 23.0422 159.443 23.0422C160.245 23.0422 160.947 23.3201 161.549 23.876C162.15 24.4318 162.451 25.114 162.451 25.9225C162.451 26.731 162.15 27.4258 161.549 28.0069C160.972 28.588 160.27 28.8786 159.443 28.8786C159.042 28.8786 158.654 28.8028 158.278 28.6512C157.927 28.4996 157.614 28.2975 157.338 28.0448C157.062 27.7921 156.837 27.489 156.661 27.1352C156.511 26.7815 156.436 26.4025 156.436 25.9983Z" fill="#0CC863"/>
<path d="M178.349 26.1499H178.237C177.585 27.1858 176.758 27.9437 175.755 28.4238C174.753 28.8786 173.65 29.106 172.447 29.106C171.62 29.106 170.805 28.9923 170.003 28.7649C169.227 28.5375 168.525 28.1964 167.898 27.7416C167.297 27.2868 166.808 26.7184 166.432 26.0362C166.056 25.354 165.868 24.5582 165.868 23.6486C165.868 22.6632 166.044 21.8295 166.394 21.1473C166.745 20.4399 167.209 19.8588 167.785 19.404C168.387 18.9239 169.076 18.5449 169.853 18.267C170.63 17.9891 171.432 17.787 172.259 17.6606C173.111 17.5091 173.963 17.4206 174.815 17.3954C175.668 17.3448 176.47 17.3196 177.221 17.3196H178.349V16.8269C178.349 15.6899 177.961 14.8435 177.184 14.2877C176.407 13.7066 175.417 13.416 174.214 13.416C173.262 13.416 172.372 13.5929 171.545 13.9466C170.718 14.2751 170.003 14.7298 169.402 15.3109L167.034 12.9233C168.036 11.8875 169.201 11.1421 170.53 10.6873C171.883 10.2326 173.274 10.0052 174.703 10.0052C175.981 10.0052 177.059 10.1568 177.936 10.46C178.813 10.7379 179.54 11.1042 180.116 11.559C180.693 12.0138 181.131 12.5444 181.432 13.1507C181.758 13.7318 181.983 14.3256 182.109 14.932C182.259 15.5383 182.347 16.1321 182.372 16.7132C182.397 17.269 182.409 17.7617 182.409 18.1912V28.6512H178.349V26.1499ZM178.086 20.503H177.146C176.52 20.503 175.818 20.5283 175.041 20.5788C174.264 20.6294 173.525 20.7557 172.823 20.9578C172.146 21.1347 171.57 21.4126 171.094 21.7916C170.617 22.1453 170.379 22.6506 170.379 23.3075C170.379 23.737 170.467 24.1034 170.643 24.4066C170.843 24.6845 171.094 24.9245 171.394 25.1266C171.695 25.3288 172.034 25.4803 172.409 25.5814C172.785 25.6572 173.161 25.6951 173.537 25.6951C175.091 25.6951 176.232 25.3288 176.958 24.5961C177.71 23.8381 178.086 22.8148 178.086 21.5263V20.503Z" fill="#0CC863"/>
<path d="M186.85 10.46H191.361V28.6512H186.85V10.46ZM186.211 4.28252C186.211 3.54982 186.474 2.91818 187 2.3876C187.551 1.83176 188.241 1.55383 189.068 1.55383C189.895 1.55383 190.584 1.81912 191.135 2.3497C191.712 2.85501 192 3.49928 192 4.28252C192 5.06575 191.712 5.72265 191.135 6.25323C190.584 6.75854 189.895 7.0112 189.068 7.0112C188.241 7.0112 187.551 6.74591 187 6.21534C186.474 5.65949 186.211 5.01522 186.211 4.28252Z" fill="#0CC863"/>
</g>
</svg>
